PathFileType	4	(X/Y/Z)	OpenSim_Sub06_EMGStiffKnee_Gyro.trc
DataRate	CameraRate	NumFrames	NumMarkers	Units	OrigDataRate	OrigDataStartFrame	OrigNumFrames
100	100	13	8	m	100	1359	5432
Frame#	Time	torso_imu_offset_imu	pelvis_imu_offset_imu	tibia_r_imu_offset_imu	femur_r_imu_offset_imu	tibia_l_imu_offset_imu	femur_l_imu_offset_imu	toes_r_imu_offset_imu	toes_l_imu_offset_imu
				X1	Y1	Z1	X2	Y2	Z2	X3	Y3	Z3	X4	Y4	Z4	X5	Y5	Z5	X6	Y6	Z6	X7	Y7	Z7	X8		Y8	Z8	

1359	13.58000000	0.79829900	-0.19225800	0.25968700	0.25491000	0.41636800	-0.26915700	0.47221700	-0.14633700	-0.40060700	0.95537300	-0.30845800	-1.25837200	-0.98092200	-0.06729400	-3.35646900	1.36326400	-0.21359200	-1.24719600	0.08691600	-0.31647900	-0.24130200	0.66936600	3.79772400	-0.28035700
1360	13.59000000	0.83210400	-0.22256300	0.27923800	0.17326900	0.37636400	-0.24802700	0.05484600	-0.16527000	-0.47167000	0.40158200	-0.28859200	-1.40441200	-0.77091500	0.12925100	-3.27273400	1.46485400	-0.31909400	-1.18631300	0.08458400	-0.28808400	-0.29267400	0.41782400	3.61007900	-0.49924200
1361	13.60000000	0.85270600	-0.23898100	0.33414500	0.08265400	0.29438100	-0.21278500	-0.30130700	-0.16522600	-0.51044600	-0.08678500	-0.25043600	-1.44437200	-0.40956200	0.13645300	-3.22422400	1.37397000	-0.32109400	-1.16581600	0.09833100	-0.26821200	-0.34045300	0.42916400	3.31268700	-0.78957600
1362	13.61000000	0.80877400	-0.26844900	0.36109300	0.02097900	0.21176800	-0.18139000	-0.55617700	-0.13707900	-0.51360900	-0.49241300	-0.21983800	-1.31563200	-0.08531500	0.08666400	-3.28166100	1.06465600	-0.26915700	-1.11343600	0.11720400	-0.24573300	-0.36502900	0.14665000	2.89167300	-1.10865800
1363	13.62000000	0.75838100	-0.28223100	0.38729400	-0.03446000	0.15760500	-0.16034800	-0.66214700	-0.09918800	-0.50287900	-0.89419700	-0.19866800	-1.06819800	0.17171800	0.16247400	-3.39163200	0.66277200	-0.14923600	-1.04129100	0.11672500	-0.20228600	-0.36225100	0.07277300	2.66463700	-1.47574600
1364	13.63000000	0.70497700	-0.27344000	0.41191200	-0.07123700	0.09950400	-0.14088000	-0.65214700	-0.07910200	-0.49429700	-1.21339100	-0.14980800	-0.79315200	0.36370300	0.26779700	-3.46132000	0.23781700	-0.03592200	-1.01330800	0.11028100	-0.16863500	-0.34232500	0.04724200	2.65915200	-1.86279400
1365	13.64000000	0.65615200	-0.27272200	0.44574200	-0.05356300	0.04350400	-0.13708700	-0.55503700	-0.09187200	-0.48989800	-1.39657800	-0.04848500	-0.54867100	0.37371900	0.25245000	-3.45399600	-0.15912000	-0.00809800	-0.97828500	0.08574400	-0.13430400	-0.31513300	0.08239900	2.60506800	-2.13819300
1366	13.65000000	0.63610300	-0.27604000	0.45688400	-0.02244900	0.00150100	-0.14711300	-0.39927200	-0.12563600	-0.49577800	-1.49592700	0.04722300	-0.38416900	0.24689800	0.06943700	-3.41228100	-0.50784600	-0.06089200	-0.95403700	0.08271400	-0.11156800	-0.29342400	0.06984500	2.51773700	-2.28190300
1367	13.66000000	0.65025200	-0.26878800	0.47019300	0.00985900	0.00597600	-0.14338800	-0.24910900	-0.17047700	-0.48222100	-1.53041200	0.09815300	-0.34873800	-0.00167700	-0.17954300	-3.38322000	-0.76801500	-0.15277200	-0.93408000	0.05621400	-0.09925200	-0.26709400	0.05508800	2.44292100	-2.36129400
1368	13.67000000	0.65881000	-0.23673200	0.47073500	0.02407000	0.06061100	-0.16300500	-0.12459900	-0.17481100	-0.45910300	-1.42311200	0.12296900	-0.41590300	-0.34716100	-0.37672400	-3.38821100	-0.91166600	-0.25372900	-0.85524100	0.06969000	-0.09048300	-0.26581500	0.16471600	2.45153100	-2.43783500
1369	13.68000000	0.63160900	-0.20550300	0.44317700	0.01803500	0.13831300	-0.18508600	-0.00552400	-0.14475200	-0.43718900	-1.12500600	0.11836600	-0.56387400	-0.67909700	-0.47119500	-3.41072700	-1.02501900	-0.33102500	-0.76862600	0.05781400	-0.07565500	-0.25488900	0.24804100	2.50012000	-2.47270000
1370	13.69000000	0.55887800	-0.21121300	0.42932100	-0.01850900	0.20157200	-0.18864700	0.06259100	-0.10588900	-0.42472800	-0.70776400	0.09774500	-0.70538100	-0.80592200	-0.48368300	-3.43087700	-1.14206100	-0.35035700	-0.67886700	0.04099200	-0.07679800	-0.23974000	0.12451200	2.55147200	-2.45876600
1371	13.70000000	0.47780800	-0.22224200	0.38035600	-0.08613300	0.21714200	-0.22326000	0.07526700	-0.05400000	-0.44221800	-0.30427500	0.08946700	-0.79579400	-0.71893000	-0.40213400	-3.45476000	-1.26562600	-0.30751800	-0.52418000	0.07323100	-0.08004800	-0.23126500	-0.05128400	2.53600400	-2.39213100
